<svg width="960" height="560" viewBox="0 0 960 560" fill="none" xmlns="http://www.w3.org/2000/svg" role="img" aria-labelledby="title desc">
  <title id="title">Task Tracker demo preview</title>
  <desc id="desc">A preview of the task tracker with an input, filters, active tasks, and completed tasks.</desc>
  <rect width="960" height="560" fill="#EEF2F4"/>
  <rect x="140" y="56" width="680" height="448" rx="8" fill="white" stroke="#D7DEE3"/>
  <rect x="140" y="56" width="680" height="448" rx="8" fill="white"/>
  <text x="188" y="126" fill="#66717C" font-family="Segoe UI, Arial, sans-serif" font-size="16" font-weight="700">SINGLE-PAGE TRACKER</text>
  <text x="188" y="176" fill="#111827" font-family="Segoe UI, Arial, sans-serif" font-size="56" font-weight="800">Tasks</text>
  <rect x="660" y="104" width="112" height="38" rx="19" fill="#E7F1EE"/>
  <text x="681" y="129" fill="#1D6B55" font-family="Segoe UI, Arial, sans-serif" font-size="16" font-weight="700">2 active</text>
  <rect x="188" y="218" width="452" height="50" rx="8" fill="white" stroke="#CBD5DC"/>
  <text x="208" y="249" fill="#66717C" font-family="Segoe UI, Arial, sans-serif" font-size="18">Plan next sprint...</text>
  <rect x="652" y="218" width="120" height="50" rx="8" fill="#17202A"/>
  <text x="695" y="249" fill="white" font-family="Segoe UI, Arial, sans-serif" font-size="18" font-weight="700">Add</text>
  <rect x="188" y="296" width="62" height="38" rx="8" fill="#E8F3FA" stroke="#2374AB"/>
  <text x="205" y="320" fill="#14577F" font-family="Segoe UI, Arial, sans-serif" font-size="16" font-weight="700">all</text>
  <rect x="262" y="296" width="82" height="38" rx="8" fill="#F7F9FA" stroke="#D7DEE3"/>
  <text x="282" y="320" fill="#46515C" font-family="Segoe UI, Arial, sans-serif" font-size="16">active</text>
  <rect x="356" y="296" width="118" height="38" rx="8" fill="#F7F9FA" stroke="#D7DEE3"/>
  <text x="377" y="320" fill="#46515C" font-family="Segoe UI, Arial, sans-serif" font-size="16">completed</text>
  <rect x="188" y="360" width="584" height="58" rx="8" fill="#FBFCFD" stroke="#DCE3E8"/>
  <rect x="210" y="380" width="18" height="18" rx="3" fill="white" stroke="#2374AB" stroke-width="2"/>
  <text x="244" y="396" fill="#17202A" font-family="Segoe UI, Arial, sans-serif" font-size="18">Review TypeScript interfaces</text>
  <rect x="686" y="373" width="66" height="32" rx="8" fill="#6F2F38"/>
  <text x="698" y="394" fill="white" font-family="Segoe UI, Arial, sans-serif" font-size="14" font-weight="700">Delete</text>
  <rect x="188" y="430" width="584" height="58" rx="8" fill="#FBFCFD" stroke="#DCE3E8"/>
  <rect x="210" y="450" width="18" height="18" rx="3" fill="#2374AB"/>
  <path d="M214 459L219 464L225 454" stroke="white" stroke-width="2.5" stroke-linecap="round" stroke-linejoin="round"/>
  <text x="244" y="466" fill="#7A858F" font-family="Segoe UI, Arial, sans-serif" font-size="18" text-decoration="line-through">Persist tasks in localStorage</text>
  <rect x="686" y="443" width="66" height="32" rx="8" fill="#6F2F38"/>
  <text x="698" y="464" fill="white" font-family="Segoe UI, Arial, sans-serif" font-size="14" font-weight="700">Delete</text>
</svg>
